# xmcd CD database file
#
# Track frame offsets:
#	150
#	18024
#	37399
#	51595
#
# Disc length: 926 seconds
#
# Revision: 0
# Processed by: cddbd v1.5.2PL0 Copyright (c) Steve Scherf et al.
# Submitted via: CDex 1.51
#
DISCID=32039c04
DTITLE=Steve Willis - Nashville Demo 1
DYEAR=2012
DGENRE=Country
TTITLE0=01 Living in Your World
TTITLE1=02 Beautiful Rain
TTITLE2=03 Play and Lay Down Your Hand
TTITLE3=04 More Love To Give
EXTD=YEAR: 2012
EXTT0=
EXTT1=
EXTT2=
EXTT3=
PLAYORDER=
